<svg xmlns="http://www.w3.org/2000/svg" width="2400" height="1350" viewBox="0 0 2400 1350" role="img" aria-label="Glowing heartbeat line over spa landscape">
  <defs>
    <linearGradient id="g0" x1="0" y1="0" x2="1" y2="1">
      <stop offset="0" stop-color="#05070c"/>
      <stop offset="1" stop-color="#0b1020"/>
    </linearGradient>
    <radialGradient id="goldGlow" cx="30%" cy="24%" r="70%">
      <stop offset="0" stop-color="rgba(212,175,55,.26)"/>
      <stop offset="0.55" stop-color="rgba(212,175,55,.08)"/>
      <stop offset="1" stop-color="rgba(212,175,55,0)"/>
    </radialGradient>
    <radialGradient id="blueGlow" cx="80%" cy="18%" r="70%">
      <stop offset="0" stop-color="rgba(120,220,255,.10)"/>
      <stop offset="1" stop-color="rgba(120,180,255,0)"/>
    </radialGradient>
    <filter id="blur" x="-20%" y="-20%" width="140%" height="140%">
      <feGaussianBlur stdDeviation="8"/>
    </filter>
  </defs>

  <rect width="2400" height="1350" fill="url(#g0)"/>
  <rect width="2400" height="1350" fill="url(#goldGlow)"/>
  <rect width="2400" height="1350" fill="url(#blueGlow)"/>

  <g opacity="0.8"><path d="M 1432.0 1271.4 Q 1644.9 974.1 2033.4 738.6" stroke="rgba(243,210,122,0.139)" stroke-width="1.79" fill="none"/><path d="M 1930.8 863.0 Q 1024.3 600.8 -30.8 369.6" stroke="rgba(243,210,122,0.094)" stroke-width="1.73" fill="none"/><path d="M 1374.5 677.9 Q 558.2 777.2 -60.0 929.1" stroke="rgba(243,210,122,0.118)" stroke-width="1.81" fill="none"/><path d="M 1664.8 811.4 Q 2185.6 971.8 2095.8 1446.7" stroke="rgba(243,210,122,0.130)" stroke-width="1.24" fill="none"/><path d="M 938.8 -76.7 Q 1444.5 492.5 1909.0 1158.9" stroke="rgba(243,210,122,0.073)" stroke-width="1.72" fill="none"/><path d="M 759.9 294.7 Q 647.4 801.1 385.2 1277.4" stroke="rgba(243,210,122,0.085)" stroke-width="1.71" fill="none"/><path d="M 1095.1 86.1 Q 1377.4 468.4 1772.9 900.0" stroke="rgba(243,210,122,0.117)" stroke-width="2.20" fill="none"/><path d="M 1008.4 836.6 Q 1197.0 1093.7 1228.4 977.4" stroke="rgba(243,210,122,0.124)" stroke-width="1.85" fill="none"/><path d="M 807.6 497.6 Q 1244.9 796.5 1245.3 956.8" stroke="rgba(243,210,122,0.095)" stroke-width="1.35" fill="none"/><path d="M 2468.7 722.2 Q 1897.8 884.6 1927.9 1403.3" stroke="rgba(243,210,122,0.103)" stroke-width="1.47" fill="none"/><path d="M 981.3 41.0 Q 1937.0 -225.7 2473.4 -73.4" stroke="rgba(243,210,122,0.139)" stroke-width="2.14" fill="none"/><path d="M -198.9 -27.4 Q 537.8 296.7 1669.8 1026.6" stroke="rgba(243,210,122,0.098)" stroke-width="1.03" fill="none"/><path d="M 1227.0 -12.3 Q 1543.6 353.0 2279.6 854.8" stroke="rgba(243,210,122,0.116)" stroke-width="1.45" fill="none"/><path d="M -188.3 426.0 Q 155.9 448.8 589.8 112.0" stroke="rgba(243,210,122,0.118)" stroke-width="1.16" fill="none"/></g>
  <g><circle cx="1538.1" cy="241.5" r="2.6" fill="rgba(212,175,55,0.094)"/><circle cx="449.7" cy="258.9" r="3.6" fill="rgba(212,175,55,0.052)"/><circle cx="308.0" cy="1224.7" r="4.5" fill="rgba(212,175,55,0.082)"/><circle cx="402.6" cy="540.5" r="5.2" fill="rgba(212,175,55,0.050)"/><circle cx="1677.6" cy="1314.8" r="3.4" fill="rgba(212,175,55,0.121)"/><circle cx="953.9" cy="729.8" r="2.4" fill="rgba(212,175,55,0.078)"/><circle cx="910.5" cy="978.9" r="4.6" fill="rgba(212,175,55,0.082)"/><circle cx="307.4" cy="544.0" r="3.9" fill="rgba(212,175,55,0.131)"/><circle cx="1614.3" cy="695.9" r="3.4" fill="rgba(212,175,55,0.120)"/><circle cx="1193.6" cy="1114.6" r="5.4" fill="rgba(212,175,55,0.062)"/><circle cx="715.5" cy="262.6" r="5.8" fill="rgba(212,175,55,0.110)"/><circle cx="1642.0" cy="1258.5" r="4.8" fill="rgba(212,175,55,0.092)"/><circle cx="544.6" cy="708.5" r="4.3" fill="rgba(212,175,55,0.105)"/><circle cx="1260.9" cy="851.4" r="2.0" fill="rgba(212,175,55,0.092)"/><circle cx="1231.2" cy="984.6" r="4.0" fill="rgba(212,175,55,0.104)"/><circle cx="454.2" cy="382.5" r="5.2" fill="rgba(212,175,55,0.120)"/><circle cx="1099.4" cy="589.1" r="5.2" fill="rgba(212,175,55,0.127)"/><circle cx="1047.8" cy="354.2" r="5.1" fill="rgba(212,175,55,0.079)"/><circle cx="356.8" cy="904.2" r="3.5" fill="rgba(212,175,55,0.140)"/><circle cx="553.6" cy="1105.9" r="2.2" fill="rgba(212,175,55,0.096)"/><circle cx="1105.7" cy="1303.4" r="2.0" fill="rgba(212,175,55,0.087)"/><circle cx="1234.0" cy="1043.3" r="3.3" fill="rgba(212,175,55,0.133)"/><circle cx="41.6" cy="922.1" r="5.7" fill="rgba(212,175,55,0.062)"/><circle cx="772.8" cy="1259.1" r="3.7" fill="rgba(212,175,55,0.055)"/><circle cx="1705.7" cy="1240.3" r="2.9" fill="rgba(212,175,55,0.129)"/><circle cx="11.6" cy="958.5" r="2.1" fill="rgba(212,175,55,0.099)"/><circle cx="1998.4" cy="1114.5" r="5.2" fill="rgba(212,175,55,0.061)"/><circle cx="738.0" cy="273.4" r="4.8" fill="rgba(212,175,55,0.083)"/><circle cx="2150.2" cy="1124.0" r="4.2" fill="rgba(212,175,55,0.084)"/><circle cx="1766.4" cy="1163.2" r="4.8" fill="rgba(212,175,55,0.063)"/><circle cx="2170.0" cy="50.6" r="4.1" fill="rgba(212,175,55,0.095)"/><circle cx="1492.4" cy="1189.6" r="5.2" fill="rgba(212,175,55,0.114)"/><circle cx="2052.1" cy="1021.4" r="2.3" fill="rgba(212,175,55,0.116)"/><circle cx="2379.9" cy="956.6" r="4.3" fill="rgba(212,175,55,0.071)"/><circle cx="2193.8" cy="599.4" r="2.7" fill="rgba(212,175,55,0.101)"/><circle cx="665.7" cy="1080.6" r="5.9" fill="rgba(212,175,55,0.060)"/><circle cx="1668.2" cy="361.4" r="4.9" fill="rgba(212,175,55,0.118)"/><circle cx="1425.2" cy="782.5" r="5.2" fill="rgba(212,175,55,0.057)"/></g>

  <g filter="url(#blur)" opacity="0.9">
    <circle cx="1752.0" cy="621.0" r="210" fill="rgba(255,255,255,.04)"/>
  </g>

  <g><circle cx="1752.0" cy="621.0" r="160" fill="none" stroke="rgba(212,175,55,0.180)" stroke-width="1.2"/><circle cx="1752.0" cy="621.0" r="215" fill="none" stroke="rgba(212,175,55,0.150)" stroke-width="1.2"/><circle cx="1752.0" cy="621.0" r="270" fill="none" stroke="rgba(212,175,55,0.120)" stroke-width="1.2"/><circle cx="1752.0" cy="621.0" r="325" fill="none" stroke="rgba(212,175,55,0.090)" stroke-width="1.2"/></g>

  <g>
    <rect x="1562.0" y="555.0" width="380" height="132" rx="26" fill="rgba(255,255,255,.05)" stroke="rgba(255,255,255,.10)"/>
    <text x="1752.0" y="613.0" text-anchor="middle" font-family="ui-sans-serif,system-ui" font-size="50" fill="rgba(245,247,255,.92)" letter-spacing="2">W3</text>
    <text x="1752.0" y="655.0" text-anchor="middle" font-family="ui-sans-serif,system-ui" font-size="22" fill="rgba(245,247,255,.60)" letter-spacing="1">w3.rehab</text>
  </g>

  <g opacity="0.9">
    <circle cx="432.0" cy="1053.0" r="280" fill="rgba(212,175,55,.06)"/>
    <circle cx="432.0" cy="1053.0" r="279" fill="none" stroke="rgba(255,255,255,.06)"/>
  </g>
</svg>